# xmcd CD database file
#
# Track frame offsets:
#	150
#	17899
#	40446
#	61696
#	80184
#	98177
#	122115
#	152553
#	169125
#	185416
#	222576
#	253512
#
# Disc length: 3716 seconds
#
# Revision: 0
# Processed by: cddbd v1.5.1PL2 Copyright (c) Steve Scherf et al.
# Submitted via: cdripper 1.0.8
#
DISCID=a60e820c
DTITLE=Hollywood Fats Band - Larger Than Life
DYEAR=2006
DGENRE=Blues
TTITLE0=Fats Fries One
TTITLE1=Nasty Boogie Woogie
TTITLE2=Baby Let's Play House
TTITLE3=Side Tracked
TTITLE4=Kidney Stew
TTITLE5=Cleanhead Blues
TTITLE6=Shake Rattle'n Roll
TTITLE7=Rockihitis
TTITLE8=This Little Voice
TTITLE9=Love For Sale
TTITLE10=Boogie Woogie Blues
TTITLE11=Motel Time
EXTD=YEAR: 2006
EXTT0=
EXTT1=
EXTT2=
EXTT3=
EXTT4=
EXTT5=
EXTT6=
EXTT7=
EXTT8=
EXTT9=
EXTT10=
EXTT11=
PLAYORDER=
